<svg id="Icons" style="fill:white" height="512" viewBox="0 0 74 74" width="512" xmlns="http://www.w3.org/2000/svg"><path d="m22.373 72a2.6 2.6 0 0 1 -1.844-.763l-16.439-16.437a2.607 2.607 0 0 1 0-3.688l12.5-12.5a2.611 2.611 0 0 1 3.687 0l16.44 16.44a2.611 2.611 0 0 1 0 3.687l-12.5 12.5a2.594 2.594 0 0 1 -1.844.761zm-3.938-32.155a.608.608 0 0 0 -.43.177l-12.505 12.502a.607.607 0 0 0 0 .859l16.443 16.439a.608.608 0 0 0 .859 0l12.5-12.5a.608.608 0 0 0 0-.859l-16.438-16.441a.606.606 0 0 0 -.429-.177z"/><path d="m21.99 63.687a1.426 1.426 0 0 1 -1.015-.421l-8.915-8.915a1.436 1.436 0 0 1 0-2.03l5.74-5.742a1.436 1.436 0 0 1 2.029 0l8.915 8.916a1.435 1.435 0 0 1 0 2.029l-5.744 5.742a1.422 1.422 0 0 1 -1.01.421zm-8.116-10.351 8.116 8.116 4.944-4.944-8.117-8.116z"/><path d="m34.114 54.777-.084-1 .01-1 4.386-.329-1.067-4.318a1 1 0 0 1 .19-.864.974.974 0 0 1 .8-.376l4.278.085-1.04-4.375a1 1 0 0 1 .193-.857 1.075 1.075 0 0 1 .794-.375l4.381.062-1.149-4.2a1 1 0 0 1 .92-1.263l4.393-.195-1.088-4.29a1 1 0 0 1 .189-.871.949.949 0 0 1 .81-.374l4.39.13-1.155-4.227a1 1 0 0 1 .964-1.264l4.522-.007-1.328-4.369a1 1 0 0 1 .164-.9 1.012 1.012 0 0 1 .828-.391l4.63.163-1.129-4.108a1 1 0 0 1 .172-.876 1.018 1.018 0 0 1 .8-.389l4.445.054-1.171-4.082-10.2-5.728-7.755 7.757a1 1 0 0 1 -1.414-1.414l8.29-8.29a1 1 0 0 1 1.2-.165l11.22 6.3a1 1 0 0 1 .471.595l1.66 5.77a1 1 0 0 1 -.961 1.277h-.012l-4.461-.057 1.138 4.139a1 1 0 0 1 -1 1.264l-4.591-.161 1.313 4.321a1 1 0 0 1 -.96 1.291l-4.563.008 1.166 4.268a1 1 0 0 1 -.179.883.974.974 0 0 1 -.816.381l-4.408-.131 1.064 4.195a1 1 0 0 1 -.924 1.245l-4.37.2 1.169 4.272a1 1 0 0 1 -.173.876 1.046 1.046 0 0 1 -.8.388l-4.426-.062 1.043 4.381a1 1 0 0 1 -.2.858.986.986 0 0 1 -.8.373l-4.267-.084 1.038 4.2a1 1 0 0 1 -.9 1.237z"/><path d="m34.43 26.36a1 1 0 0 1 -.707-1.707l2.06-2.06a1 1 0 0 1 1.417 1.414l-2.06 2.06a1 1 0 0 1 -.71.293z"/><path d="m20.02 40.77a1 1 0 0 1 -.707-1.707l9.46-9.46a1 1 0 0 1 1.414 1.414l-9.46 9.46a1 1 0 0 1 -.707.293z"/><path d="m41.44 19.35a1 1 0 0 1 -.707-1.707l2.1-2.1a1 1 0 0 1 1.414 1.414l-2.1 2.1a1 1 0 0 1 -.707.293z"/></svg>