<svg height="512" style='fill:white' viewBox="0 0 64 64" width="512" xmlns="http://www.w3.org/2000/svg"><g id="outline"><path d="m25 30h-1a1 1 0 0 0 -1 1v3a1 1 0 0 0 .293.707l1.707 1.707v2.586a1 1 0 0 0 .105.447l1.895 3.789v3.764a1 1 0 0 0 1 1h1v13a1 1 0 0 0 1 1h4a1 1 0 0 0 1-1v-13h1a1 1 0 0 0 1-1v-3.764l1.9-3.789a1 1 0 0 0 .1-.447v-2.586l1.707-1.707a1 1 0 0 0 .293-.707v-3a1 1 0 0 0 -1-1h-1v-9a1 1 0 0 0 -1-1h-4a1 1 0 0 0 -1 1v9h-2v-9a1 1 0 0 0 -1-1h-4a1 1 0 0 0 -1 1zm8 30h-2v-8h2zm0-10h-2v-2h2zm2-4h-6v-2h6zm0-24h2v8h-2zm-8 0h2v8h-2zm12 10v1.586l-1.707 1.707a1 1 0 0 0 -.293.707v2.764l-1.618 3.236h-6.764l-1.618-3.236v-2.764a1 1 0 0 0 -.293-.707l-1.707-1.707v-1.586z"/><path d="m29 34h6v2h-6z"/><path d="m29 38h6v2h-6z"/><path d="m36.87 2.507a1 1 0 0 0 -.87-.507h-5a1 1 0 0 0 -.874.514l-5 9a1 1 0 0 0 .874 1.486h4v4a1 1 0 0 0 .676.946 1.01 1.01 0 0 0 .324.054 1 1 0 0 0 .789-.386l7-9a1 1 0 0 0 -.789-1.614h-3.233l2.09-3.485a1 1 0 0 0 .013-1.008zm-.915 6.493-3.955 5.085v-2.085a1 1 0 0 0 -1-1h-3.3l3.89-7h2.644l-2.09 3.485a1 1 0 0 0 .856 1.515z"/><path d="m14 24h5v2h-5z"/><path d="m17 17h1.999v5h-1.999z" transform="matrix(.6 -.8 .8 .6 -8.399 22.205)"/><path d="m15.5 29.5h5v1.999h-5z" transform="matrix(.8 -.6 .6 .8 -14.7 16.9)"/><path d="m45 24h5v2h-5z"/><path d="m43.5 18.5h5v1.999h-5z" transform="matrix(.8 -.6 .6 .8 -2.502 31.491)"/><path d="m45 28h1.999v5h-1.999z" transform="matrix(.6 -.8 .8 .6 -5.996 49.01)"/></g></svg>