<svg height="512" viewBox="0 0 512 512" width="512" xmlns="http://www.w3.org/2000/svg"><g><g><path d="m496 92v276h-480v-276a19.994 19.994 0 0 1 20-20h440a19.994 19.994 0 0 1 20 20z" fill="#78b9eb"/><path d="m496 368v28a19.994 19.994 0 0 1 -20 20h-440a19.994 19.994 0 0 1 -20-20v-28z" fill="#d8d7da"/><path d="m144 472h224v24h-224z" fill="#d8d7da"/><path d="m328 472h-144l16-56h112z" fill="#acabb1"/></g><g><path d="m392.279 336h-272.558c-29.735 0-49.075-31.293-35.777-57.889l136.279-238.557c14.741-29.482 56.813-29.482 71.554 0l136.279 238.557c13.298 26.596-6.042 57.889-35.777 57.889z" fill="#3e3d42"/><path d="m119.792 296 135.713-237.566.495-.991.495.991 135.713 237.566z" fill="#d80027"/><g fill="#d8d7da"><path d="m240 136h32v80h-32z"/><path d="m240 240h32v32h-32z"/></g></g><g><path d="m476 64h-161.04l-16.13-28.23a48 48 0 0 0 -85.66 0l-16.13 28.23h-161.04a28.031 28.031 0 0 0 -28 28v304a28.031 28.031 0 0 0 28 28h153.39l-11.42 40h-33.97a8 8 0 0 0 -8 8v24a8 8 0 0 0 8 8h224a8 8 0 0 0 8-8v-24a8 8 0 0 0 -8-8h-33.97l-11.42-40h153.39a28.031 28.031 0 0 0 28-28v-304a28.031 28.031 0 0 0 -28-28zm-248.83-20.48.21-.39a32 32 0 0 1 57.24 0l.21.39 136.16 238.36a32 32 0 0 1 -28.71 46.12h-272.56a32 32 0 0 1 -28.71-46.12zm132.83 436.48v8h-208v-8zm-165.39-16 11.42-40h99.94l11.42 40zm293.39-68a12.01 12.01 0 0 1 -12 12h-440a12.01 12.01 0 0 1 -12-12v-20h464zm0-36h-464v-268a12.01 12.01 0 0 1 12-12h151.9l-110.9 194.14a3.716 3.716 0 0 0 -.21.39 48 48 0 0 0 42.93 69.47h272.56a48 48 0 0 0 42.93-69.47 3.716 3.716 0 0 0 -.21-.39l-110.9-194.14h151.9a12.01 12.01 0 0 1 12 12z"/><path d="m399.15 292.03-135.6-237.37-.39-.79a8 8 0 0 0 -14.32 0l-.39.79-135.6 237.37a7.992 7.992 0 0 0 6.94 11.97h272.42a7.992 7.992 0 0 0 6.94-11.97zm-265.57-4.03 122.42-214.3 122.42 214.3z"/><path d="m272 128h-32a8 8 0 0 0 -8 8v80a8 8 0 0 0 8 8h32a8 8 0 0 0 8-8v-80a8 8 0 0 0 -8-8zm-8 80h-16v-64h16z"/><path d="m272 232h-32a8 8 0 0 0 -8 8v32a8 8 0 0 0 8 8h32a8 8 0 0 0 8-8v-32a8 8 0 0 0 -8-8zm-8 32h-16v-16h16z"/></g></g></svg>