<?xml version="1.0"?>
<svg xmlns="http://www.w3.org/2000/svg" style='fill:white' width="512" height="512" viewBox="0 0 512 512"><path d="M240,216c10.549.266,10.551,15.732,0,16C229.451,231.734,229.449,216.268,240,216ZM464,496c-24.181.475-40.175-27.465-27.7-48H403.314l-45.657,45.656c-4.752,5.059-13.878,1.251-13.657-5.656V443.314L276.687,376H264v8a8,8,0,0,1-8,8c-3.414.007-34.832-.009-37.282,0l5.233,47.117a8.436,8.436,0,0,1-.092,2.337,7.144,7.144,0,0,1-.269,1.076l-6.437,19.309,12.5,12.5A8,8,0,0,1,232,480v8a8,8,0,0,1-8,8H176a8,8,0,0,1-8-8V441.3l-.683-2.05c-.757,1.441-8.153,21.609-9.348,22.063-.1.117-.207.23-.312.345L147.313,472l2.344,2.343c3.425,2.885,2.11,9.775,2.343,13.657a8,8,0,0,1-8,8H120a8,8,0,0,1-5.657-2.343l-24-24a8,8,0,0,1,0-11.314L120,428.686c.409-34.56-.8-92.517.433-127.267C81.538,283.44,55.756,242.813,56,200c-11.5-.376-24.021,2.369-32.966-7.013-12.638-12.145-7.188-34.4,9.094-39.661C40.374,9.231,186.279-9.558,268.8,41.6A8,8,0,0,1,272,48V72h24a8,8,0,0,1,8,8v48c-.12,5.714-4.922,8.581-10.248,8a128.456,128.456,0,0,1,2,16c31.966.9,32.229,46.713.243,48H280a111.621,111.621,0,0,1-16.307,58.184,7.844,7.844,0,0,1-2.41,3.811,111.894,111.894,0,0,1-45.7,39.462A7.958,7.958,0,0,1,216,304v40h40a8,8,0,0,1,8,8v8h16a8,8,0,0,1,5.657,2.343L299.314,376h25.372l61.657-61.657a8,8,0,0,1,11.314,0L459.314,376H488a8,8,0,0,1,5.657,13.657L447.314,436l.444.444A31.8,31.8,0,0,1,464,432C506.282,433.339,506.288,494.656,464,496ZM156.184,424H136v4.686l13.078,13.078ZM144,312h-8v48h8Zm16,64h56V360H184a8,8,0,0,1-8-8V312H160ZM139.755,200a14.679,14.679,0,0,0,1.9,18.343l16,16L176,252.687V211.314L164.686,200ZM152,251.314l-31.892,31.892c21.634,12.7,48.97,16.141,73.2,9.42ZM200,344V312h-8v32Zm64-144H203.314L192,211.314v57.373l17.788,17.788a95.594,95.594,0,0,0,29.815-22.5,7.99,7.99,0,0,1-5.26-2.323,3.232,3.232,0,0,0-4.686,0c-7.65,7.271-18.584-3.664-11.314-11.314A19.4,19.4,0,0,1,240,246.41a19.3,19.3,0,0,1,12.666-1.136A95.736,95.736,0,0,0,264,200ZM288,88H273.821A127.043,127.043,0,0,1,288,115.332Zm8,96c10.563-.272,10.534-15.762,0-16H240c-10.559-.27-10.54-15.734,0-16h39.7c-2.411-40.766-29.384-78.635-66.908-94.685A8,8,0,1,1,219.2,42.654,128.287,128.287,0,0,1,256,67.069V52.355C217.4,29.044,123.631,15.448,78.712,72.007c6.587-.1,10.431,8.5,5.8,13.327A111.771,111.771,0,0,0,56.287,152H96c10.565.268,10.531,15.742,0,16H40c-10.557.274-10.544,15.753,0,16ZM106.764,273.923,140.686,240l-40-40H72A96.306,96.306,0,0,0,106.764,273.923ZM132.687,480l-2.344-2.343a8,8,0,0,1,0-11.314L140.686,456,128,443.314,107.313,464l16,16Zm80,0c-15.544-15.807-14.9-10.7-7.787-32H184v32ZM202.62,392H152a8,8,0,0,1-8-8v-8h-8v32h32a7.562,7.562,0,0,1,1.5.157,8.041,8.041,0,0,1,6.087,5.313L181.766,432h25.3ZM248,360H232v16h16Zm99.313,16h89.374L392,331.313Zm33.374,72H360v20.687Zm48-16,40-40H315.313l40,40h73.374Zm31.186,16.559,9.784,9.784a8,8,0,0,1-11.314,11.314l-9.784-9.784C445.72,469.791,453.67,480.156,464,480,487.986,478.574,483.378,443.7,459.873,448.559Z"/></svg>
