<svg id="Capa_1" style="fill:white" enable-background="new 0 0 511.982 511.982" height="512" viewBox="0 0 511.982 511.982" width="512" xmlns="http://www.w3.org/2000/svg"><g><path d="m62.157 83.349c12.417 0 22.52-10.102 22.52-22.52s-10.102-22.52-22.52-22.52-22.52 10.102-22.52 22.52 10.102 22.52 22.52 22.52zm0-30.039c4.146 0 7.52 3.373 7.52 7.52s-3.373 7.52-7.52 7.52-7.52-3.373-7.52-7.52 3.373-7.52 7.52-7.52z"/><path d="m109.907 83.349c12.417 0 22.52-10.102 22.52-22.52s-10.102-22.52-22.52-22.52-22.52 10.102-22.52 22.52 10.103 22.52 22.52 22.52zm0-30.039c4.146 0 7.52 3.373 7.52 7.52s-3.373 7.52-7.52 7.52-7.52-3.373-7.52-7.52 3.374-7.52 7.52-7.52z"/><path d="m87.284 208.265c6.664-3.7 10.804-10.809 10.804-18.553v-53.958c0-4.142-3.358-7.5-7.5-7.5s-7.5 3.358-7.5 7.5v53.958c0 2.298-1.182 4.382-3.085 5.438-3.603 2.002-7.659-1.762-7.928-2.018-2.923-2.888-7.635-2.885-10.556.017-2.938 2.92-2.953 7.668-.034 10.607 3.131 3.151 9.191 7.042 16.261 7.042 3.043 0 6.274-.721 9.538-2.533z"/><path d="m207.672 210.766h.033c.001 0 18.032-.08 23.002-.08 14.156 0 25.672-11.517 25.672-25.672 0-8.372-4.029-15.818-10.249-20.508 2.634-3.744 4.186-8.301 4.186-13.217 0-12.701-10.333-23.034-23.034-23.034h-19.61c-4.142 0-7.5 3.358-7.5 7.5v67.511c0 1.995.795 3.908 2.208 5.315 1.406 1.4 3.309 2.185 5.292 2.185zm23.035-15.08c-2.844 0-9.954.026-15.535.048v-21.374c1.641-.007 3.385-.013 5.052-.019h10.484c5.884 0 10.672 4.788 10.672 10.672-.001 5.885-4.789 10.673-10.673 10.673zm-3.425-52.431c4.43 0 8.034 3.604 8.034 8.034s-3.604 8.035-8.034 8.035c-1.431 0-4.115.008-7.048.018h-5.062v-16.087z"/><path d="m107.874 169.51c0 22.749 18.507 41.256 41.256 41.256 22.748 0 41.255-18.507 41.255-41.256s-18.507-41.255-41.255-41.255c-22.749 0-41.256 18.507-41.256 41.255zm41.256-26.255c14.477 0 26.255 11.778 26.255 26.255 0 14.478-11.778 26.256-26.255 26.256-14.478 0-26.256-11.778-26.256-26.256 0-14.477 11.778-26.255 26.256-26.255z"/><path d="m502.048 441.361-27.489-27.489 2.294-2.294c10.026-10.026 10.026-26.34 0-36.367-5.178-5.178-12.033-7.674-18.833-7.504 4.361-15.75 5.206-32.296 2.386-48.666-3.914-22.72-14.629-43.376-30.988-59.735-2.029-2.029-4.124-3.968-6.277-5.819v-187.485c0-29.423-23.938-53.36-53.36-53.36h-316.421c-29.423 0-53.36 23.937-53.36 53.36v289.7c0 29.423 23.937 53.36 53.36 53.36h211.574c2.209 2.658 4.548 5.231 7.022 7.706 16.358 16.358 37.014 27.074 59.733 30.989 6.364 1.097 12.753 1.642 19.114 1.641 10 0 19.924-1.35 29.551-4.014-.167 6.796 2.329 13.647 7.504 18.822 4.857 4.857 11.315 7.532 18.184 7.532s13.327-2.675 18.184-7.532l2.29-2.29 27.489 27.489c6.623 6.623 15.322 9.935 24.022 9.935s17.399-3.312 24.022-9.935c13.244-13.245 13.244-34.798-.001-48.044zm-448.688-47.299c-21.152 0-38.36-17.208-38.36-38.36v-289.7c0-21.152 17.208-38.36 38.36-38.36h316.42c21.152 0 38.36 17.208 38.36 38.36v176.615c-5.429-3.282-11.113-6.08-17-8.372v-120.908c0-11.166-9.089-20.25-20.26-20.25h-231.55c-4.142 0-7.5 3.358-7.5 7.5s3.358 7.5 7.5 7.5h231.55c2.9 0 5.26 2.355 5.26 5.25v116.274c-8.247-1.919-16.772-2.912-25.451-2.912-29.742.001-57.703 11.583-78.733 32.614-21.03 21.029-32.611 48.99-32.61 78.73 0 8.175.881 16.214 2.587 24.014h-189.673c-2.9 0-5.26-2.36-5.26-5.26v-243.46c0-2.895 2.359-5.25 5.26-5.25h57.07c4.142 0 7.5-3.358 7.5-7.5s-3.358-7.5-7.5-7.5h-57.07c-11.171 0-20.26 9.084-20.26 20.25v243.46c0 11.171 9.088 20.26 20.26 20.26h194.092c2.196 5.881 4.893 11.566 8.071 17.005zm229.202 12.099c-18.195-18.195-28.216-42.386-28.216-68.118-.001-25.733 10.02-49.927 28.216-68.123 18.197-18.197 42.392-28.219 68.127-28.22s49.927 10.019 68.122 28.213c27.971 27.971 35.95 70.77 20.077 106.897l-49.435 49.435c-36.125 15.869-78.921 7.886-106.891-20.084zm123.48 50.577c-2.862 0-5.553-1.115-7.577-3.139-4.178-4.178-4.178-10.976 0-15.153l52.627-52.628c4.178-4.179 10.976-4.178 15.153 0 4.178 4.178 4.178 10.976 0 15.154l-52.627 52.627c-2.023 2.024-4.714 3.139-7.576 3.139zm85.399 22.061c-7.397 7.397-19.434 7.397-26.831 0l-27.489-27.489 26.831-26.831 27.489 27.489c7.397 7.397 7.397 19.433 0 26.831z"/><path d="m416.971 373.27c1.946-3.656.559-8.198-3.098-10.144-3.656-1.946-8.198-.559-10.144 3.098-2.791 5.244-6.351 10.048-10.582 14.28-11.342 11.342-26.422 17.588-42.461 17.588s-31.115-6.246-42.453-17.588c-11.342-11.342-17.588-26.422-17.588-42.462s6.246-31.12 17.589-42.463c11.337-11.341 26.413-17.587 42.452-17.587s31.119 6.246 42.461 17.588c11.857 11.858 18.247 28.266 17.53 45.016-.177 4.138 3.034 7.637 7.172 7.814 4.142.194 7.637-3.034 7.814-7.172.896-20.937-7.09-41.444-21.91-56.264-14.175-14.175-33.021-21.981-53.067-21.981s-38.89 7.807-53.059 21.981c-14.175 14.175-21.982 33.022-21.982 53.068 0 20.047 7.807 38.894 21.981 53.067 14.17 14.176 33.014 21.982 53.06 21.982s38.892-7.806 53.067-21.981c5.283-5.282 9.729-11.284 13.218-17.84z"/><path d="m174.214 246.057h-99.762c-4.142 0-7.5 3.358-7.5 7.5s3.358 7.5 7.5 7.5h99.762c4.142 0 7.5-3.358 7.5-7.5s-3.358-7.5-7.5-7.5z"/><path d="m174.214 277.981h-99.762c-4.142 0-7.5 3.358-7.5 7.5s3.358 7.5 7.5 7.5h99.762c4.142 0 7.5-3.358 7.5-7.5s-3.358-7.5-7.5-7.5z"/><path d="m174.214 309.905h-99.762c-4.142 0-7.5 3.358-7.5 7.5s3.358 7.5 7.5 7.5h99.762c4.142 0 7.5-3.358 7.5-7.5s-3.358-7.5-7.5-7.5z"/></g></svg>