<?xml version="1.0" encoding="iso-8859-1"?>
<!-- Generator: Adobe Illustrator 19.0.0, SVG Export Plug-In . SVG Version: 6.00 Build 0)  -->
<svg version="1.1" id="Capa_1" xmlns="http://www.w3.org/2000/svg" xmlns:xlink="http://www.w3.org/1999/xlink" x="0px" y="0px"
	 viewBox="0 0 496 496" style="fill:white;enable-background:new 0 0 496 496;" xml:space="preserve">
<g>
	<g>
		<g>
			<path d="M88,128c13.68,0,24-17.192,24-40s-10.32-40-24-40S64,65.192,64,88S74.32,128,88,128z M88,64c1.992,0,8,8.512,8,24
				s-6.008,24-8,24s-8-8.512-8-24S86.008,64,88,64z"/>
			<path d="M408,0H88C56.6,0,32,38.656,32,88v184c0,17.673,14.327,32,32,32c5.634-0.033,11.157-1.569,16-4.448V320
				c0,17.673,14.327,32,32,32s32-14.327,32-32v-52.448c4.843,2.879,10.366,4.415,16,4.448c17.673,0,32-14.327,32-32v-64h216
				c15.824,0,29.912-9.832,40-25.888V168c0,17.673-14.327,32-32,32H288c-23.397,0.043-43.361,16.934-47.28,40H232
				c-4.418,0-8,3.582-8,8v24h-8c-4.418,0-8,3.582-8,8v208c0,4.418,3.582,8,8,8h64c4.418,0,8-3.582,8-8V280c0-4.418-3.582-8-8-8h-8
				v-24c0-4.418-3.582-8-8-8h-6.864c3.637-14.086,16.317-23.945,30.864-24h128c26.499-0.026,47.974-21.501,48-48V88
				C464,38.656,439.4,0,408,0z M240,256h16v16h-16V256z M272,288v192h-48V288H272z M88,16c21.68,0,40,32.968,40,72s-18.32,72-40,72
				s-40-32.968-40-72S66.32,16,88,16z M176,240c0,8.837-7.163,16-16,16s-16-7.163-16-16v-24h-16v104c0,8.837-7.163,16-16,16
				s-16-7.163-16-16v-64H80v16c0,8.837-7.163,16-16,16s-16-7.163-16-16V150.112C58.088,166.168,72.176,176,88,176h88V240z M408,160
				H120.52c16.208-20.408,24.541-45.961,23.48-72c1.061-26.039-7.272-51.592-23.48-72H408c21.68,0,40,32.968,40,72
				S429.68,160,408,160z"/>
			<rect x="240" y="448" width="16" height="16"/>
		</g>
	</g>
</g>
<g>
</g>
<g>
</g>
<g>
</g>
<g>
</g>
<g>
</g>
<g>
</g>
<g>
</g>
<g>
</g>
<g>
</g>
<g>
</g>
<g>
</g>
<g>
</g>
<g>
</g>
<g>
</g>
<g>
</g>
</svg>
