<?xml version="1.0" encoding="iso-8859-1"?>
<!-- Generator: Adobe Illustrator 19.0.0, SVG Export Plug-In . SVG Version: 6.00 Build 0)  -->
<svg version="1.1" id="Capa_1" xmlns="http://www.w3.org/2000/svg" xmlns:xlink="http://www.w3.org/1999/xlink" x="0px" y="0px"
	 viewBox="0 0 480 480" style="fill:white;enable-background:new 0 0 480 480;" xml:space="preserve">
<g>
	<g>
		<g>
			<path d="M382.528,168c-4.335-12.442-17.935-19.014-30.376-14.68c-6.877,2.396-12.284,7.802-14.68,14.68H320c-4.418,0-8-3.582-8-8
				v-17.472c12.442-4.335,19.014-17.935,14.68-30.376c-2.396-6.877-7.802-12.284-14.68-14.68V0H168v97.448
				c-3.342,1.137-6.374,3.034-8.856,5.544c-4.602,4.457-7.183,10.601-7.144,17.008c0.042,10.134,6.445,19.15,16,22.528V160
				c0,4.418-3.582,8-8,8h-17.472c-3.378-9.555-12.394-15.958-22.528-16c-10.14,0.035-19.164,6.44-22.544,16H0v144h97.472
				c4.335,12.442,17.935,19.014,30.376,14.68c6.877-2.396,12.284-7.802,14.68-14.68h84.84L260,279.336L254.552,312h82.92
				c3.378,9.555,12.394,15.958,22.528,16c10.14-0.035,19.164-6.44,22.544-16H480V168H382.528z M96,296H16V184h80V296z M128,304
				c0,4.418-3.582,8-8,8s-8-3.582-8-8V176c-0.004-2.157,0.885-4.219,2.456-5.696c1.455-1.495,3.458-2.328,5.544-2.304
				c4.418,0,8,3.582,8,8V304z M184,16h112v80H184V16z M170.456,114.304c1.455-1.495,3.458-2.328,5.544-2.304h128
				c4.418,0,8,3.582,8,8s-3.582,8-8,8H176c-4.418,0-8-3.582-8-8C167.996,117.843,168.885,115.781,170.456,114.304z M336,296h-62.552
				L284,232.664L220.744,296H144V184h16c13.255,0,24-10.745,24-24v-16h112v16c0,13.255,10.745,24,24,24h16V296z M368,304
				c0.003,2.155-0.882,4.215-2.448,5.696c-1.459,1.493-3.465,2.325-5.552,2.304c-4.418,0-8-3.582-8-8V176c0-4.418,3.582-8,8-8
				s8,3.582,8,8V304z M464,296h-80V184h80V296z"/>
			<path d="M240,337.92l-6.584,9.536C229.176,353.6,192,408.104,192,432c0,26.51,21.49,48,48,48c26.51,0,48-21.49,48-48
				c0-23.896-37.176-78.4-41.416-84.544L240,337.92z M240,464c-17.673,0-32-14.327-32-32c0-12.296,17.6-43.416,32-65.6
				c14.4,22.192,32,53.312,32,65.6C272,449.673,257.673,464,240,464z"/>
		</g>
	</g>
</g>
<g>
</g>
<g>
</g>
<g>
</g>
<g>
</g>
<g>
</g>
<g>
</g>
<g>
</g>
<g>
</g>
<g>
</g>
<g>
</g>
<g>
</g>
<g>
</g>
<g>
</g>
<g>
</g>
<g>
</g>
</svg>
